<?xml version="1.0" standalone="no"?>
<!DOCTYPE svg PUBLIC "-//W3C//DTD SVG 20010904//EN"
 "http://www.w3.org/TR/2001/REC-SVG-20010904/DTD/svg10.dtd">
<svg version="1.0" xmlns="http://www.w3.org/2000/svg"
 width="300.000000pt" height="300.000000pt" viewBox="0 0 300.000000 300.000000"
 preserveAspectRatio="xMidYMid meet">
<metadata>
Created by potrace 1.11, written by Peter Selinger 2001-2013
</metadata>
<g transform="translate(0.000000,300.000000) scale(0.100000,-0.100000)"
fill="#000000" stroke="none">
<path d="M579 2446 c-2 -3 -24 -7 -48 -10 -100 -12 -191 -54 -257 -121 -21
-21 -61 -91 -74 -130 -19 -54 -22 -1295 -4 -1365 24 -98 81 -173 168 -224 93
-54 70 -53 1151 -51 550 1 1011 5 1025 8 130 35 246 155 268 280 5 23 7 330 7
682 -2 595 -3 643 -20 685 -38 94 -97 155 -195 202 -59 28 -75 31 -177 34 -62
1 -117 5 -123 9 -5 3 -10 3 -10 -2 0 -9 -74 -8 -89 2 -6 3 -11 3 -11 -2 0 -7
-86 -9 -115 -3 -5 1 -12 2 -15 0 -15 -5 -238 -2 -248 4 -7 4 -12 4 -12 -1 0
-10 -292 -9 -308 1 -7 4 -12 4 -12 -1 0 -9 -221 -9 -245 0 -8 4 -15 3 -15 -1
0 -7 -75 -8 -105 -2 -5 1 -14 1 -20 0 -27 -5 -224 -2 -234 4 -6 4 -11 4 -11
-1 0 -9 -74 -8 -89 2 -6 3 -11 3 -11 -2 0 -10 -153 -11 -161 0 -3 4 -7 5 -10
3z"/>
</g>
</svg>
